<svg xmlns="http://www.w3.org/2000/svg" width="24" height="24" viewBox="0 0 24 24" fill="none" stroke="currentColor" stroke-width="2" stroke-linecap="round" stroke-linejoin="round">
  <path d="M3 8V5a1 1 0 0 1 1-1h3"/><path d="M21 8V5a1 1 0 0 0-1-1h-3"/>
  <path d="M3 16v3a1 1 0 0 0 1 1h3"/><path d="M21 16v3a1 1 0 0 1-1 1h-3"/>
  <line x1="6" y1="8" x2="6" y2="16"/><line x1="9.5" y1="8" x2="9.5" y2="16"/>
  <line x1="12.5" y1="8" x2="12.5" y2="16"/><line x1="15" y1="8" x2="15" y2="16"/><line x1="18" y1="8" x2="18" y2="16"/>
</svg>
